<svg xmlns="http://www.w3.org/2000/svg" viewBox="0 0 120 600" fill="none" stroke="#000" stroke-width="3" stroke-linecap="round">
  <!-- Decorative double-helix line art. Used as a CSS mask, so stroke colour is
       irrelevant (only alpha matters); the tint comes from the token in CSS. -->
  <path d="M60,0 Q100,0 100,37.5 Q100,75 60,75 Q20,75 20,112.5 Q20,150 60,150 Q100,150 100,187.5 Q100,225 60,225 Q20,225 20,262.5 Q20,300 60,300 Q100,300 100,337.5 Q100,375 60,375 Q20,375 20,412.5 Q20,450 60,450 Q100,450 100,487.5 Q100,525 60,525 Q20,525 20,562.5 Q20,600 60,600"/>
  <path d="M60,0 Q20,0 20,37.5 Q20,75 60,75 Q100,75 100,112.5 Q100,150 60,150 Q20,150 20,187.5 Q20,225 60,225 Q100,225 100,262.5 Q100,300 60,300 Q20,300 20,337.5 Q20,375 60,375 Q100,375 100,412.5 Q100,450 60,450 Q20,450 20,487.5 Q20,525 60,525 Q100,525 100,562.5 Q100,600 60,600"/>
  <g stroke-width="2">
    <line x1="20" y1="37.5" x2="100" y2="37.5"/>
    <line x1="20" y1="112.5" x2="100" y2="112.5"/>
    <line x1="20" y1="187.5" x2="100" y2="187.5"/>
    <line x1="20" y1="262.5" x2="100" y2="262.5"/>
    <line x1="20" y1="337.5" x2="100" y2="337.5"/>
    <line x1="20" y1="412.5" x2="100" y2="412.5"/>
    <line x1="20" y1="487.5" x2="100" y2="487.5"/>
    <line x1="20" y1="562.5" x2="100" y2="562.5"/>
  </g>
</svg>
